<?xml version="1.0" encoding="utf-8"?>
<!-- Generator: Adobe Illustrator 24.0.1, SVG Export Plug-In . SVG Version: 6.00 Build 0)  -->
<svg version="1.0" id="Layer_1" xmlns="http://www.w3.org/2000/svg" xmlns:xlink="http://www.w3.org/1999/xlink" x="0px" y="0px"
	 viewBox="0 0 655.7 655.7" style="enable-background:new 0 0 655.7 655.7;" xml:space="preserve">
<g>
	<path d="M175.54,470.32c3.26,3.53,5.64,7.65,7.14,12.36c0.71,2.22,1.34,3.63,1.9,4.23c0.4,0.44,1.16,1.03,2.27,1.8
		c0.36,0.25,0.72,0.56,1.08,0.95c1.16,1.26,1.6,2.89,1.31,4.91c-0.66,4.91-3.06,9.29-7.21,13.13c-2.92,2.71-5.99,3.68-9.19,2.93
		c-1.73-0.42-3.22-1.3-4.47-2.65c-1.14-1.23-1.8-2.48-1.99-3.74c-0.18-1.26,0.06-2.88,0.75-4.86c0.95-2.8,1.53-4.92,1.76-6.34
		c0.23-1.42,0.25-2.92,0.05-4.49c-0.53-3.86-1.97-7.07-4.34-9.63c-2.3-2.49-5.03-3.63-8.18-3.42c-3.15,0.2-6.24,1.7-9.25,4.5
		c-4.15,3.84-6.98,8.42-8.49,13.71c-1.98,7.12-0.5,13.33,4.42,18.65c1.81,1.96,3.93,3.59,6.36,4.91c2.43,1.32,4.65,2.03,6.68,2.13
		c1.72,0.11,2.85,0.46,3.38,1.04c0.78,0.85,1.06,1.93,0.83,3.26c-0.23,1.33-0.89,2.51-2.01,3.54c-1.4,1.3-3.36,2.33-5.88,3.09
		c-2.52,0.76-4.82,1.01-6.91,0.75c-0.88-0.13-2.21-0.84-4-2.15c-1.02-0.76-2.59-1.57-4.73-2.42c-5.02-1.99-9.32-4.91-12.9-8.78
		c-3.73-4.03-6.55-8.89-8.45-14.58c-2.21-6.61-2.4-13.27-0.56-20c1.77-6.57,4.96-11.99,9.57-16.26c5.36-4.96,11.79-7.82,19.3-8.58
		c6.52-0.66,12.95,0.41,19.3,3.19C167.89,463.61,172.05,466.55,175.54,470.32z"/>
	<path d="M204.05,498.44l22.11,12.44c4.47,2.52,7.79,4.26,9.94,5.23c2.15,0.97,4.37,1.71,6.64,2.24c0.7,0.17,1.22,0.35,1.56,0.54
		c1.49,0.84,2.36,2.38,2.6,4.64c0.42,3.67-0.4,7.36-2.48,11.06c-1.05,1.86-2.27,3.11-3.66,3.74c-1.39,0.63-2.78,0.56-4.16-0.21
		c-0.95-0.53-1.58-1.14-1.89-1.83c-0.31-0.69-0.54-1.95-0.67-3.8c-0.18-2.63-1.06-4.81-2.63-6.55c-1.57-1.73-4.57-3.84-8.98-6.33
		c-3.3-1.86-5.64-2.4-7.02-1.62c-0.73,0.42-1.43,1.14-2.09,2.16c-0.67,1.02-2.23,3.71-4.68,8.07c-0.97,1.72-1.28,2.95-0.94,3.69
		c0.34,0.74,1.73,1.79,4.17,3.17c1.2,0.68,2.22,0.92,3.05,0.72c0.83-0.2,1.67-0.9,2.54-2.11c1.14-1.55,1.99-2.57,2.55-3.07
		c0.56-0.5,1.26-0.81,2.09-0.95c0.89-0.18,1.74-0.04,2.54,0.41c1.18,0.66,1.86,1.79,2.07,3.37c0.13,1.17-0.18,2.93-0.95,5.27
		c-0.77,2.34-1.8,4.66-3.09,6.95c-2.55,4.53-5.34,7.85-8.38,9.96c-1.66,1.14-3.28,1.27-4.86,0.38c-0.98-0.55-1.51-1.18-1.6-1.89
		c-0.09-0.71,0.21-1.91,0.89-3.6c1.39-3.48,0.41-6.17-2.94-8.06c-1.29-0.73-2.4-0.81-3.34-0.26c-0.93,0.55-2.02,1.93-3.26,4.14
		c-0.76,1.35-1.65,3.14-2.66,5.38c-1.02,2.24-1.62,3.76-1.8,4.56c-0.25,0.99,0.12,1.98,1.13,2.98c1,1,2.9,2.28,5.68,3.85
		c4.3,2.42,7.85,3.69,10.65,3.81c2.8,0.12,5.7-0.88,8.71-3c1.74-1.21,3.09-1.92,4.06-2.13c0.97-0.21,1.97-0.03,3,0.56
		c1.2,0.68,1.91,1.76,2.11,3.25c0.2,1.49-0.14,3.02-1.03,4.6c-0.97,1.72-2.62,3.62-4.96,5.7c-2.34,2.08-4.72,3.76-7.14,5.04
		c-1.21,0.6-2.12,0.95-2.74,1.04c-0.62,0.09-1.25-0.05-1.91-0.42c-0.54-0.31-1.29-0.84-2.22-1.59c-1.64-1.38-3.97-2.97-6.99-4.78
		l-36.48-20.52c-1.46-0.82-2.41-1.78-2.85-2.88c-0.44-1.1-0.33-2.23,0.33-3.41c0.47-0.83,0.98-1.34,1.53-1.52
		c0.55-0.18,1.61-0.21,3.16-0.09c1.07,0.11,1.97,0.01,2.69-0.3c0.72-0.31,1.5-0.93,2.32-1.87c3.38-3.8,7.14-9.37,11.27-16.71
		c6.23-11.07,9.47-18.44,9.72-22.11c0.04-0.73-0.05-1.31-0.27-1.74c-0.22-0.42-0.78-1.1-1.69-2.03c-1.36-1.41-1.56-2.96-0.61-4.65
		c0.52-0.92,1.25-1.58,2.2-1.99c0.95-0.41,1.93-0.48,2.95-0.21C198.6,495.55,200.84,496.64,204.05,498.44z"/>
	<path d="M277.2,533.41l20.5,25.44c1.92,2.38,3.39,3.65,4.39,3.83c1.69,0.29,2.84-1.36,3.47-4.95c0.71-4.08,0.96-6.91,0.73-8.49
		c-0.23-1.58-1.05-2.87-2.48-3.89c-1.16-0.84-1.93-1.65-2.33-2.44c-0.4-0.79-0.5-1.73-0.31-2.83c0.48-2.72,2.65-4.15,6.51-4.27
		c1.58-0.06,4.27,0.25,8.06,0.91c4.89,0.86,8.23,1.74,10.01,2.65c2.82,1.43,4.01,3.41,3.57,5.94c-0.37,2.11-1.86,3.48-4.48,4.13
		c-1.05,0.25-1.78,0.51-2.19,0.77s-0.81,0.69-1.18,1.3c-1.25,1.99-2.41,5.96-3.49,11.92l-2.77,15.85c-0.43,2.43-0.99,5.76-1.7,9.98
		c-0.97,5.71-2.03,9.77-3.18,12.17c-1.43,2.99-3.29,4.29-5.59,3.88c-1-0.18-1.83-0.54-2.49-1.09s-1.69-1.73-3.11-3.55l-24.31-30.86
		c-1.69-2.17-3.2-3.37-4.53-3.6c-1.98-0.35-3.45,2.22-4.4,7.7c-0.79,4.51-1.08,7.63-0.86,9.37c0.21,1.74,1.03,3.14,2.45,4.19
		c1.98,1.45,2.83,3.03,2.53,4.75c-0.79,4.51-6.03,5.91-15.72,4.21c-4.38-0.77-7.67-1.94-9.88-3.51c-2.21-1.57-3.14-3.41-2.77-5.52
		c0.19-1.1,0.56-1.89,1.11-2.36c0.55-0.47,1.7-1.04,3.45-1.7c1.68-0.64,2.89-2.08,3.61-4.33c1.28-4.08,2.61-10.05,3.98-17.89
		c1.46-8.36,2.04-14.54,1.74-18.54c-0.11-1.46-0.39-2.57-0.82-3.35c-0.43-0.78-1.23-1.58-2.38-2.42c-1.33-0.97-2.23-1.84-2.67-2.62
		c-0.45-0.78-0.59-1.66-0.42-2.63c0.54-3.11,3.56-4.6,9.05-4.48c1.86,0.06,5.06,0.48,9.6,1.28c2.59,0.45,4.45,0.99,5.56,1.6
		C274.59,530.54,275.83,531.7,277.2,533.41z"/>
	<path d="M350.93,535.46l25.63-4.44c2.74-0.57,5.19-1.38,7.34-2.42c0.93-0.43,1.76-0.71,2.51-0.84c2.63-0.45,5.52,1.05,8.67,4.51
		c3.15,3.46,5.09,7.25,5.8,11.37c0.49,2.82-0.01,5.03-1.51,6.62c-1.13,1.2-2.6,1.95-4.42,2.27c-1.72,0.3-3.29,0.08-4.72-0.66
		c-1.43-0.74-2.95-2.1-4.57-4.09c-1.42-1.82-2.49-2.99-3.21-3.5c-0.72-0.51-1.52-0.69-2.4-0.54c-1.2,0.21-1.97,0.86-2.32,1.95
		c-0.34,1.1-0.32,2.79,0.08,5.1l4.72,27.24c0.48,2.79,1.13,4.76,1.93,5.93c0.8,1.16,2.07,1.95,3.81,2.35
		c1.88,0.44,3.19,0.94,3.94,1.5c0.75,0.56,1.22,1.42,1.42,2.58c0.4,2.33-0.88,4.34-3.84,6.03c-2.96,1.68-7.72,3.09-14.27,4.22
		c-8.04,1.39-14.12,1.76-18.24,1.1c-3.47-0.53-5.41-2.03-5.84-4.5c-0.23-1.33,0.17-2.47,1.21-3.42c0.26-0.21,1.35-0.8,3.25-1.77
		c1.17-0.57,1.9-1.4,2.2-2.48c0.3-1.09,0.34-3.08,0.14-5.99c-0.18-2.57-0.64-6.71-1.4-12.41c-0.75-5.7-1.49-10.62-2.21-14.77
		c-0.51-2.92-1.09-4.95-1.76-6.11c-0.67-1.15-1.52-1.64-2.56-1.46c-1.26,0.22-2.34,1.34-3.22,3.36c-1.6,3.68-3,6.18-4.21,7.49
		c-1.43,1.55-2.93,2.46-4.49,2.73c-1.75,0.3-3.31-0.1-4.67-1.22c-1.36-1.12-2.22-2.7-2.57-4.74c-0.35-2.01-0.28-4.3,0.21-6.88
		c0.49-2.57,1.32-5.01,2.49-7.32c1.89-3.73,4.04-5.81,6.44-6.22c0.65-0.11,1.41-0.14,2.29-0.1c1.81,0.05,3.29,0.05,4.43-0.02
		C348.17,535.88,349.47,535.72,350.93,535.46z"/>
	<path d="M405.96,522.43l22.37-11.97c4.53-2.42,7.78-4.28,9.75-5.58c1.97-1.3,3.79-2.77,5.45-4.4c0.52-0.5,0.95-0.84,1.3-1.03
		c1.51-0.81,3.28-0.71,5.31,0.29c3.33,1.62,5.99,4.29,8,8.04c1.01,1.89,1.41,3.59,1.19,5.1s-1.02,2.64-2.41,3.39
		c-0.96,0.51-1.81,0.72-2.56,0.61s-1.93-0.6-3.56-1.48c-2.32-1.26-4.63-1.69-6.94-1.3c-2.31,0.4-5.7,1.79-10.16,4.18
		c-3.34,1.79-5.05,3.47-5.14,5.04c-0.04,0.84,0.2,1.82,0.7,2.93c0.5,1.11,1.93,3.87,4.29,8.28c0.93,1.74,1.8,2.67,2.61,2.78
		c0.81,0.11,2.44-0.49,4.91-1.81c1.22-0.65,1.97-1.38,2.25-2.18s0.14-1.9-0.41-3.28c-0.7-1.79-1.1-3.06-1.22-3.8
		c-0.12-0.74-0.01-1.5,0.32-2.27c0.33-0.85,0.9-1.49,1.71-1.92c1.19-0.64,2.51-0.61,3.95,0.07c1.06,0.52,2.37,1.73,3.93,3.63
		c1.56,1.91,2.96,4.02,4.21,6.34c2.45,4.58,3.75,8.72,3.9,12.41c0.07,2.01-0.69,3.45-2.29,4.3c-0.99,0.53-1.8,0.64-2.45,0.33
		c-0.65-0.3-1.5-1.2-2.56-2.69c-2.19-3.04-4.98-3.66-8.38-1.84c-1.31,0.7-1.98,1.59-2.01,2.67s0.54,2.74,1.74,4.98
		c0.73,1.36,1.77,3.08,3.11,5.14c1.35,2.06,2.31,3.38,2.88,3.97c0.7,0.75,1.74,0.96,3.12,0.65c1.38-0.31,3.48-1.22,6.29-2.72
		c4.35-2.33,7.33-4.64,8.94-6.94c1.61-2.3,2.32-5.28,2.15-8.96c-0.09-2.12,0.04-3.64,0.38-4.57c0.34-0.93,1.04-1.67,2.08-2.23
		c1.22-0.65,2.51-0.66,3.88-0.03c1.36,0.63,2.47,1.75,3.33,3.34c0.93,1.74,1.65,4.16,2.14,7.25c0.5,3.09,0.64,6,0.42,8.73
		c-0.14,1.34-0.34,2.3-0.59,2.87c-0.26,0.57-0.72,1.03-1.39,1.38c-0.55,0.3-1.4,0.64-2.53,1.02c-2.04,0.65-4.64,1.76-7.79,3.33
		l-36.9,19.75c-1.48,0.79-2.8,1.08-3.96,0.86c-1.16-0.22-2.06-0.92-2.7-2.11c-0.45-0.84-0.6-1.54-0.46-2.11
		c0.15-0.56,0.69-1.47,1.63-2.72c0.67-0.84,1.07-1.65,1.19-2.43c0.13-0.78,0.02-1.76-0.33-2.96c-1.39-4.89-4.07-11.05-8.04-18.48
		c-5.99-11.2-10.47-17.89-13.43-20.08c-0.6-0.42-1.14-0.66-1.61-0.71c-0.47-0.04-1.34,0.07-2.62,0.34
		c-1.92,0.39-3.33-0.27-4.25-1.98c-0.5-0.93-0.66-1.9-0.5-2.92c0.16-1.02,0.63-1.89,1.41-2.6
		C400.59,525.48,402.71,524.17,405.96,522.43z"/>
	<path d="M505.13,500.64c-0.86,0.91-1.13,1.75-0.81,2.52c0.31,0.77,1.48,2.1,3.49,4c3.04,2.87,5.59,4.91,7.66,6.13
		c0.59,0.33,1.13,0.5,1.62,0.51c0.49,0.01,1.24-0.14,2.26-0.45c2.14-0.69,3.86-0.43,5.16,0.79c1.58,1.49,1.76,3.54,0.53,6.17
		s-4.08,6.31-8.57,11.08c-8.35,8.86-14.2,11.71-17.55,8.56c-0.57-0.54-0.91-1.11-1.01-1.7c-0.1-0.59-0.02-1.65,0.24-3.17
		c0.3-1.71,0.15-3.19-0.45-4.46c-0.6-1.26-1.99-3.06-4.18-5.39c-1.59-1.72-7.63-7.52-18.12-17.41c-3.33-3.14-5.75-5.1-7.26-5.89
		c-1.51-0.79-3.06-0.9-4.65-0.31c-1.5,0.58-2.62,0.85-3.38,0.82c-0.76-0.04-1.47-0.37-2.14-1c-0.89-0.83-1.34-1.9-1.35-3.21
		c-0.02-1.3,0.4-2.71,1.24-4.23c0.71-1.28,1.91-2.82,3.6-4.61c0.75-0.79,2.73-2.65,5.94-5.59c0.61-0.55,1.53-1.48,2.75-2.77
		c2.03-2.16,4.59-5.17,7.69-9.03c1.98-2.43,3.39-4.1,4.25-5.02c4.83-5.13,10.06-8.2,15.68-9.23c5.07-0.92,9.58,0.48,13.53,4.21
		c2.2,2.08,3.71,4.49,4.53,7.25c0.82,2.76,0.81,5.49-0.02,8.19c-0.34,1.13-0.24,1.94,0.28,2.44c0.69,0.65,1.81,0.6,3.35-0.17
		c3.28-1.66,6.39-2.2,9.34-1.64c2.95,0.56,6.57,2.39,10.85,5.47c1.78,1.27,3.1,1.93,3.95,1.96c0.85,0.03,2.19-0.49,4.02-1.57
		c0.57-0.32,1.24-0.42,2-0.29c0.76,0.13,1.43,0.46,2,1.01c0.74,0.7,1.22,1.69,1.43,2.98c0.21,1.29,0.11,2.59-0.32,3.9
		c-0.96,2.89-3.09,6.09-6.38,9.58c-4.4,4.67-8.78,6.85-13.14,6.54c-1.96-0.13-4.08-0.66-6.35-1.61s-5.59-2.66-9.95-5.13
		c-2.79-1.59-5.06-2.4-6.79-2.43C508.34,498.39,506.7,499.13,505.13,500.64z M484.85,485.47l8,8.28c0.07,0.07,0.18,0.17,0.32,0.3
		c0.86,0.81,1.56,1.23,2.08,1.25s1.15-0.35,1.87-1.12c1.99-2.11,2.88-4.15,2.7-6.14c-0.19-1.98-1.48-4.11-3.87-6.36
		c-4.62-4.35-8.48-4.89-11.57-1.61c-0.88,0.93-1.29,1.8-1.21,2.58C483.23,483.44,483.79,484.38,484.85,485.47z"/>
</g>
<g>
	<path d="M50.4,270.54c3.69-9.71,7.54-13.81,11.56-12.29c1.09,0.41,1.88,1,2.38,1.76c0.5,0.76,0.9,2,1.21,3.72
		c0.29,1.5,0.97,2.64,2.06,3.43c1.09,0.79,3.49,1.89,7.19,3.29c2.18,0.83,3.67,0.93,4.48,0.31c0.49-0.35,0.94-0.99,1.37-1.91
		c0.42-0.93,1.3-3.15,2.64-6.67c1.22-3.21,1.8-5.26,1.76-6.17c-0.05-0.91-0.76-1.62-2.13-2.14c-4.11-1.56-7.05-2.46-8.81-2.7
		c-1.76-0.24-3.14,0.07-4.15,0.94c-1.3,1.08-2.3,1.73-3.01,1.96c-0.71,0.23-1.52,0.17-2.42-0.17c-1.28-0.48-2.25-1.41-2.93-2.77
		c-0.68-1.36-0.91-2.89-0.69-4.59c0.45-3.53,1.6-7.74,3.46-12.63c2.17-5.73,4.3-9.76,6.38-12.09c2.08-2.33,4.22-3.07,6.43-2.23
		c1.87,0.71,2.9,2.21,3.1,4.49c0.1,1.43,0.33,2.43,0.71,2.99c0.37,0.57,1.22,1.23,2.54,1.98c0.73,0.42,4.13,1.89,10.19,4.4
		c6.06,2.52,10.9,4.46,14.51,5.83c6.32,2.4,10.43,3.69,12.32,3.87c1.03,0.11,1.76,0.06,2.19-0.13c0.43-0.19,1.42-0.94,2.99-2.23
		c1.1-0.94,2.32-1.15,3.66-0.64c2.37,0.9,3.55,2.96,3.56,6.19c0,3.23-1.19,8-3.59,14.32c-2.1,5.54-4.2,9.43-6.3,11.66
		c-1.91,2.02-3.9,2.63-5.99,1.84c-1.77-0.67-2.81-2.12-3.11-4.33c-0.15-1.09-0.42-1.9-0.79-2.41c-0.37-0.52-1.17-1.18-2.39-2
		c-2.4-1.55-5.5-3.05-9.3-4.49c-1.96-0.74-3.29-0.92-3.97-0.52c-0.69,0.4-1.49,1.81-2.41,4.24c-2.12,5.57-3.15,9.24-3.11,11
		c0.01,0.72,0.6,1.38,1.75,2c1.42,0.75,3.23,1.54,5.4,2.37c3.55,1.35,6.29,1.82,8.23,1.41c0.63-0.15,1.57-0.72,2.84-1.7
		c1.24-1.02,2.72-1.21,4.43-0.56c2.18,0.83,3.27,2.97,3.28,6.43c0,3.46-1.06,7.99-3.18,13.59c-1.94,5.11-4.05,9.08-6.34,11.91
		c-1,1.22-2.08,2.07-3.23,2.54c-1.16,0.47-2.25,0.51-3.28,0.12c-1.03-0.39-1.73-0.94-2.1-1.65c-0.37-0.71-0.67-2.07-0.91-4.09
		c-0.11-1.04-0.43-1.86-0.98-2.48c-0.55-0.62-1.6-1.33-3.15-2.13c-3.47-1.85-8.14-3.89-14.03-6.13c-1.09-0.41-2.39-0.89-3.89-1.43
		c-7.52-2.71-11.81-4.27-12.87-4.67c-2.67-1.05-4.52-1.49-5.56-1.34c-1.04,0.16-2.46,1.07-4.27,2.73c-1.17,1.12-2.41,1.43-3.72,0.94
		c-3.14-1.19-4.17-5.07-3.06-11.64C47.95,278.05,48.98,274.28,50.4,270.54z"/>
	<path d="M146.48,165.48l21.93,4.17c2.04,0.36,3.47,0.47,4.29,0.32c0.82-0.14,1.68-0.66,2.56-1.54c1.7-1.73,3.39-1.99,5.06-0.78
		c1.97,1.42,2.53,3.63,1.68,6.63c-0.85,3-3.22,7.2-7.12,12.61c-4.4,6.11-7.92,10.45-10.56,13.02c-1.22,1.18-2.48,1.89-3.8,2.15
		c-1.32,0.26-2.5,0.01-3.56-0.75c-0.81-0.58-1.29-1.25-1.43-1.99c-0.14-0.74,0-1.81,0.44-3.22c0.48-1.58,0.21-2.74-0.81-3.48
		c-1.81-1.3-3.67-0.98-5.57,0.97c-2.02,2.12-4.57,5.31-7.65,9.58c-2.59,3.59-3.92,5.9-4,6.91c-0.04,0.63,0.17,1.36,0.64,2.19
		c0.47,0.83,1.03,1.48,1.68,1.95c0.59,0.43,1.06,0.59,1.4,0.49c0.34-0.1,1.17-0.64,2.49-1.62c1.67-1.3,3.24-1.42,4.7-0.37
		c3.22,2.32,2.05,7.33-3.5,15.03c-3.16,4.38-5.77,7.38-7.85,9c-1.93,1.48-3.85,1.53-5.77,0.15c-0.84-0.6-1.33-1.28-1.49-2.03
		c-0.16-0.75-0.04-1.8,0.37-3.15c0.65-2.2,0.73-4.16,0.26-5.88c-0.47-1.71-1.94-4.73-4.4-9.06l-8.4-14.74
		c-3.07-5.42-5.49-9.31-7.26-11.67c-1.77-2.36-3.73-4.35-5.9-5.95c-2.3-1.7-3.82-3.01-4.54-3.92c-0.72-0.91-1.19-2.12-1.41-3.64
		c-0.55-3.23,0.22-6.29,2.31-9.18c1.97-2.73,4.91-4.57,8.84-5.51C115.53,160.82,127.65,161.92,146.48,165.48z M131.25,197.37
		l5.73-7.94c1.05-1.46,1.25-2.42,0.61-2.89c-0.89-0.64-3.81-1.21-8.76-1.69c-2.26-0.23-3.83-0.3-4.72-0.2
		c-0.89,0.1-1.53,0.41-1.92,0.96c-0.7,0.97-0.38,2.44,0.96,4.39c0.17,0.28,0.84,1.37,2.03,3.25c1.94,3.12,3.18,4.88,3.72,5.27
		C129.57,198.99,130.35,198.61,131.25,197.37z"/>
	<path d="M198.7,127.17c-1.06,0.69-1.52,1.46-1.4,2.29c0.13,0.83,0.96,2.42,2.49,4.76c2.32,3.54,4.35,6.15,6.09,7.83
		c0.5,0.47,1,0.76,1.48,0.88c0.48,0.12,1.26,0.15,2.33,0.09c2.27-0.18,3.9,0.49,4.89,1.99c1.21,1.84,0.9,3.9-0.93,6.19
		c-1.82,2.29-5.51,5.25-11.05,8.89c-10.31,6.76-16.74,8.18-19.29,4.28c-0.44-0.67-0.64-1.3-0.59-1.91c0.04-0.6,0.37-1.63,0.98-3.06
		c0.7-1.61,0.9-3.11,0.61-4.49c-0.29-1.38-1.24-3.48-2.84-6.29c-1.16-2.07-5.73-9.2-13.73-21.4c-2.54-3.87-4.46-6.38-5.76-7.51
		c-1.3-1.14-2.81-1.61-4.51-1.41c-1.61,0.22-2.78,0.22-3.52,0.01c-0.74-0.21-1.36-0.71-1.87-1.49c-0.68-1.03-0.87-2.19-0.58-3.48
		c0.29-1.29,1.03-2.58,2.21-3.87c1-1.09,2.54-2.32,4.63-3.69c0.92-0.6,3.31-1.97,7.17-4.1c0.73-0.4,1.85-1.09,3.36-2.08
		c2.51-1.64,5.74-4,9.7-7.07c2.52-1.93,4.31-3.24,5.37-3.94c5.96-3.91,11.83-5.7,17.61-5.39c5.21,0.29,9.32,2.73,12.33,7.33
		c1.68,2.56,2.6,5.3,2.75,8.2c0.15,2.91-0.5,5.59-1.95,8.06c-0.6,1.03-0.7,1.85-0.3,2.46c0.53,0.81,1.64,1.02,3.33,0.62
		c3.62-0.86,6.81-0.66,9.58,0.59c2.77,1.25,5.9,3.9,9.39,7.94c1.46,1.67,2.6,2.63,3.43,2.86c0.83,0.23,2.27,0.03,4.33-0.6
		c0.64-0.18,1.32-0.12,2.04,0.19c0.72,0.31,1.3,0.79,1.73,1.46c0.57,0.86,0.8,1.95,0.71,3.27c-0.09,1.32-0.5,2.57-1.23,3.77
		c-1.63,2.62-4.48,5.26-8.54,7.93c-5.43,3.56-10.26,4.67-14.48,3.34c-1.9-0.59-3.86-1.61-5.87-3.08c-2.02-1.47-4.88-3.93-8.58-7.4
		c-2.38-2.23-4.41-3.56-6.11-4C202.39,125.7,200.59,126.05,198.7,127.17z M182.31,107.45l5.92,10.04c0.05,0.08,0.14,0.21,0.25,0.38
		c0.66,1,1.24,1.58,1.75,1.72c0.51,0.14,1.21-0.08,2.1-0.66c2.45-1.61,3.82-3.41,4.1-5.41c0.28-2-0.49-4.39-2.31-7.17
		c-3.52-5.38-7.19-6.81-11.01-4.31c-1.09,0.71-1.69,1.46-1.81,2.26C181.19,105.07,181.52,106.13,182.31,107.45z"/>
	<path d="M275.58,122.47l-3.55,0.56c-2.07,0.33-4.38,0.79-6.91,1.39c-1.59,0.38-2.7,0.63-3.32,0.72c-2.21,0.35-4.08,0.12-5.62-0.69
		c-1.54-0.8-2.44-2.03-2.7-3.67c-0.18-1.15-0.02-2.1,0.49-2.83c0.51-0.74,1.42-1.41,2.74-2.02c1.26-0.53,2.07-1.21,2.41-2.02
		c0.34-0.81,0.48-2.31,0.41-4.49c-0.12-2.51-0.64-7.35-1.55-14.52c-0.91-7.17-1.91-14.28-3.02-21.32c-0.43-2.76-0.94-4.57-1.51-5.43
		c-0.57-0.85-1.69-1.44-3.36-1.75c-2.4-0.5-3.77-1.79-4.09-3.86c-0.25-1.61,0.33-2.99,1.75-4.14c1.42-1.15,3.53-1.94,6.33-2.38
		c0.92-0.14,2.01-0.3,3.27-0.46c2.78-0.33,4.79-0.6,6.04-0.8c4.71-0.74,10-1.72,15.87-2.95c1.24-0.26,2.8-0.54,4.67-0.83
		c7.53-1.18,13.62-1.26,18.27-0.24c6.92,1.54,12.5,5.09,16.74,10.62c3.76,4.87,6.23,10.99,7.38,18.36
		c0.58,3.72,0.63,7.53,0.13,11.43c-0.5,3.91-1.46,7.37-2.87,10.39c-2.95,6.13-7.6,10.83-13.97,14.13
		c-3.74,1.94-7.85,3.25-12.32,3.96l-6,0.74l-5.16,0.66C282.12,121.51,278.61,121.99,275.58,122.47z M277.55,67.34l5.99,38.2
		c0.33,2.07,1,3.48,2.03,4.21c1.02,0.73,2.57,0.94,4.65,0.61c9.61-1.51,13.27-9.57,10.97-24.17c-1.26-8.06-3.36-14.14-6.3-18.23
		c-3.24-4.52-7.8-6.31-13.69-5.39c-1.58,0.25-2.64,0.73-3.18,1.46C277.48,64.76,277.32,65.86,277.55,67.34z"/>
	<path d="M378.31,97.67l8.74-24.78c1.13-3.2,1.63-5.32,1.49-6.33c-0.14-1.02-1.08-2.14-2.84-3.36c-2.54-1.81-3.45-3.73-2.75-5.74
		c0.5-1.41,1.48-2.29,2.94-2.62c1.46-0.33,3.32-0.1,5.58,0.7c0.75,0.27,2.61,0.97,5.56,2.12l2.83,1c5.22,1.81,8.29,2.85,9.21,3.11
		c0.91,0.27,4.2,1.12,9.88,2.56c1.89,0.45,3.59,0.95,5.09,1.48c5.15,1.82,9.37,4.49,12.64,8.01c5.72,6.11,7.18,13.13,4.39,21.04
		c-2.26,6.41-6.52,10.68-12.78,12.82c-5.89,1.98-12.12,1.82-18.68-0.5c-1.67-0.59-3.67-1.42-6.01-2.49
		c-1.25-0.55-2.04-0.88-2.35-0.99c-0.91-0.32-1.55,0.04-1.92,1.07l-0.1,0.28l-2.39,7.84c-0.47,1.53-0.59,2.75-0.36,3.66
		c0.23,0.91,0.96,2.02,2.19,3.34c1.65,1.82,2.25,3.37,1.8,4.66c-0.7,1.98-2.74,2.97-6.13,2.98c-3.39,0-7.85-0.97-13.38-2.92
		c-11.62-4.1-16.73-8.14-15.32-12.13c0.33-0.94,0.84-1.58,1.52-1.9c0.68-0.33,2.11-0.63,4.3-0.92c1.34-0.2,2.29-0.8,2.86-1.8
		C374.85,106.86,376.19,103.46,378.31,97.67z M410.4,74.4l-5.65,16.02c-0.43,1.23-0.43,2.06,0.02,2.5c0.76,0.76,1.82,1.38,3.21,1.87
		c2.07,0.73,4.02,0.77,5.84,0.1c2.63-0.94,4.63-3.38,6.02-7.31c1.44-4.08,1.29-7.46-0.46-10.12c-1.1-1.69-2.71-2.92-4.85-3.67
		C412.21,72.97,410.84,73.17,410.4,74.4z"/>
	<path d="M483.07,127.39l-14.84,17.48c-3.34,3.94-5.16,6.76-5.44,8.49c-0.31,2.06,0.89,4.23,3.58,6.51
		c2.89,2.46,5.72,3.76,8.47,3.92c2.75,0.15,5.6-0.84,8.55-2.96c1.78-1.33,3.35-1.42,4.69-0.28c1.35,1.14,1.93,2.68,1.76,4.61
		c-0.17,1.93-1.08,3.86-2.72,5.79c-2.67,3.15-6.7,5.52-12.07,7.12c-1.71,0.52-3.02,0.75-3.93,0.69c-0.91-0.06-1.76-0.42-2.55-1.09
		l-7.58-8.21l-26.62-22.61c-1.75-1.49-2.81-2.74-3.18-3.75c-0.54-1.47-0.32-2.79,0.67-3.95c0.6-0.71,1.22-1.09,1.86-1.14
		c0.63-0.05,1.88,0.17,3.74,0.65c2.03,0.54,3.77,0.37,5.24-0.53c1.21-0.76,3.96-3.65,8.22-8.68c1.98-2.33,4.78-5.75,8.38-10.25
		c3.45-4.32,6.07-7.56,7.86-9.71c1.72-2.03,2.75-3.56,3.07-4.57c0.32-1.02,0.11-2.12-0.63-3.32c-1.18-2.01-1.85-3.38-2-4.13
		c-0.27-1.32-0.07-2.39,0.63-3.21c1.57-1.85,4.31-1.96,8.2-0.31c3.33,1.38,7.18,3.94,11.58,7.67c4.92,4.18,8.39,7.56,10.4,10.14
		c2.57,3.36,2.98,6.07,1.23,8.12c-0.71,0.84-1.45,1.28-2.21,1.33c-0.76,0.05-2.25-0.27-4.46-0.97c-1.33-0.39-2.57-0.17-3.7,0.66
		C488.1,121.72,486.04,123.88,483.07,127.39z"/>
	<path d="M557.46,180.13c4.51,7.28,6.37,14.92,5.58,22.93c-0.58,5.45-2.43,10.74-5.57,15.86c-3.14,5.04-6.98,8.97-11.51,11.78
		c-6.68,4.14-14.02,5.64-22.03,4.48c-6.79-0.96-13.03-3.86-18.72-8.67c-3.49-2.97-6.39-6.33-8.71-10.06
		c-3.04-4.9-4.92-10.21-5.66-15.95c-0.89-6.93,0.21-13.47,3.3-19.62c2.97-5.96,7.36-10.73,13.16-14.33
		c6.74-4.18,13.87-5.95,21.39-5.32c6.69,0.55,12.89,3.04,18.61,7.45C551.16,171.61,554.55,175.43,557.46,180.13z M542.78,183.65
		c-1.47-2.38-3.7-3.6-6.69-3.67c-2.25-0.09-4.47,0.54-6.65,1.89c-3.2,1.98-6.5,4.93-9.89,8.84c-3.4,3.91-6.11,7.86-8.14,11.86
		c-0.84,1.74-1.28,3.5-1.3,5.3c-0.02,1.8,0.38,3.36,1.2,4.69c1.33,2.15,3.21,3.38,5.64,3.7c2.43,0.32,4.96-0.34,7.59-1.97
		c3.43-2.12,6.78-4.96,10.06-8.53c3.28-3.56,5.78-7.09,7.49-10.58c1.06-2.15,1.65-4.23,1.76-6.26
		C543.98,186.88,543.61,185.13,542.78,183.65z"/>
	<path d="M590.19,251.02l8.25,25c0.98,2.66,2.15,4.99,3.52,6.99c0.57,0.87,0.97,1.66,1.21,2.39c0.85,2.56-0.23,5.68-3.23,9.35
		c-3,3.67-6.5,6.17-10.52,7.5c-2.75,0.91-5.04,0.73-6.85-0.53c-1.37-0.95-2.34-2.31-2.93-4.09c-0.55-1.68-0.57-3.28-0.04-4.83
		c0.53-1.54,1.67-3.27,3.42-5.18c1.62-1.69,2.63-2.94,3.03-3.73c0.4-0.8,0.46-1.63,0.18-2.48c-0.39-1.17-1.15-1.85-2.3-2.03
		c-1.15-0.18-2.84,0.1-5.09,0.84l-26.57,8.77c-2.72,0.9-4.6,1.83-5.65,2.81c-1.05,0.98-1.64,2.36-1.78,4.17
		c-0.16,1.95-0.47,3.34-0.91,4.17c-0.45,0.83-1.24,1.43-2.38,1.81c-2.28,0.75-4.48-0.23-6.6-2.95c-2.12-2.72-4.24-7.27-6.35-13.66
		c-2.59-7.84-3.86-13.88-3.81-18.1c0.02-3.55,1.23-5.72,3.64-6.51c1.3-0.43,2.5-0.19,3.6,0.71c0.25,0.23,1,1.23,2.25,2.99
		c0.74,1.09,1.68,1.7,2.81,1.83c1.13,0.13,3.14-0.11,6.01-0.75c2.55-0.56,6.62-1.64,12.21-3.24c5.59-1.6,10.41-3.07,14.46-4.4
		c2.85-0.94,4.8-1.83,5.85-2.67c1.06-0.84,1.42-1.77,1.08-2.78c-0.41-1.23-1.69-2.14-3.85-2.73c-3.93-1.06-6.63-2.09-8.13-3.11
		c-1.77-1.21-2.9-2.57-3.4-4.09c-0.56-1.71-0.39-3.33,0.53-4.86c0.91-1.53,2.37-2.62,4.36-3.28c1.96-0.65,4.27-0.92,6.91-0.81
		c2.65,0.11,5.21,0.58,7.7,1.41c4.02,1.34,6.42,3.18,7.19,5.52c0.21,0.63,0.35,1.39,0.44,2.28c0.21,1.82,0.44,3.3,0.67,4.43
		C589.36,248.32,589.72,249.59,590.19,251.02z"/>
</g>
<g>
	<path d="M327.49,647.18c-86.21,0-167.26-33.43-228.22-94.15C38.3,492.32,4.72,411.59,4.72,325.72
		c0-85.87,33.58-166.59,94.54-227.31C160.23,37.7,241.28,4.27,327.49,4.27c86.21,0,167.26,33.43,228.22,94.14
		c60.97,60.72,94.54,141.44,94.54,227.31c0,85.87-33.58,166.6-94.54,227.31C494.75,613.75,413.7,647.18,327.49,647.18z
		 M327.49,14.27c-172.46,0-312.77,139.72-312.77,311.45c0,171.74,140.31,311.46,312.77,311.46s312.77-139.72,312.77-311.46
		C640.26,153.99,499.95,14.27,327.49,14.27z"/>
</g>
<g>
	<path d="M482.85,329.17c-2.27-1.15-5.18-2.52-8.26-3.97c-3.59-1.69-7.65-3.61-11.52-5.55c-35.43-17.78-54.84-28.43-74.61-57.65
		c-6.36-9.41-18.4-33.75-22.94-42.91l-0.82-1.65l-115.35,8.79l0.07,0.53c2.13,15.47,9.67,33.8,16.02,48.06
		c14.68,29.41,42.47,62.97,63.25,76.4c0.76,0.49,1.5,0.97,2.23,1.45c8.38,5.46,16.3,10.63,34.63,15.73l0.1,0.03l0.1-0.01
		c8.71-1.24,18.38-4.19,26.9-6.79c2.79-0.85,5.42-1.66,7.91-2.37c23.21-6.64,39.22-11.89,57.08-18.72
		c9.46-3.62,12.01-4.59,25.17-10.45l0.96-0.43L482.85,329.17z M299.09,231.89c20.13-1.48,40.94-3.02,60.39-4.08
		c3.01,5.56,5.61,10.96,8.12,16.19c7.15,14.88,13.9,28.93,28.68,43.71c17.77,17.77,42.3,30.66,64.16,40.94
		c-27.34,10.03-51.29,18.72-93.4,27.96c-53.47-20.26-85.91-57.93-105.11-122.08C273.96,233.75,286.73,232.8,299.09,231.89z"/>
	<path d="M205.23,314.85c6.95,6.9,13.51,13.42,22.13,19.23c39,26.27,86.25,44.47,136.66,52.64l0.13,0.02l0.12-0.04
		c16.66-5.88,34.29-10.93,51.33-15.81c19.6-5.61,39.86-11.41,58.79-18.52l1.27-0.48l-13.56-4.88l-0.15,0.04
		c-12.5,3.35-25.86,7.24-38.77,11.01c-19.48,5.68-39.62,11.55-58.53,16.09c-49.84-15.55-75.15-48.57-98.77-83.92l-0.2-0.3
		l-0.35,0.09c-6.83,1.85-12.99,4.06-19.51,6.41c-3.8,1.37-7.73,2.78-12.06,4.22c-3.09,1.03-5.98,1.92-9.05,2.86
		c-6.55,2.02-13.33,4.1-22.23,7.64l-0.71,0.28l0.55,0.54C203.31,312.94,204.27,313.9,205.23,314.85z"/>
	<path d="M453.07,365.04c-11.19,3.18-23,6.86-34.42,10.41c-18.37,5.72-37.36,11.63-55.55,16.08
		c-34.01-6.81-82.89-18.02-114.99-36.62l-0.17-0.1l-0.19,0.04c-3.23,0.71-6.39,1.41-9.52,2.09c-20.98,4.6-40.79,8.95-62.08,14.97
		l-2.19,0.62l187.63,29.62l0.11,0.02l0.1-0.03c18.79-5.19,37.53-10.33,56.31-15.48c19-5.21,38.04-10.43,57.18-15.72l1.92-0.53
		l-24.01-5.41L453.07,365.04z"/>
	<path d="M473.38,373.33l-0.21-0.17l-0.25,0.08c-32.18,9.64-67.24,19.51-110.33,31.07l-0.33,0.09l-0.04,0.34
		c-0.24,2.09-0.6,3.94-0.89,5.42c-0.54,2.78-0.87,4.46-0.08,5.35c0.33,0.37,0.8,0.55,1.44,0.55c0.08,0,0.16,0,0.25-0.01l0.11-0.02
		c17.07-4.98,73.13-20.61,110.59-29.72l0.69-0.17l-0.39-0.59c-0.81-1.25-0.24-2.78,0.44-4.55
		C475.31,378.53,476.36,375.73,473.38,373.33z"/>
	<path d="M360.78,404.11c-53.55-9.15-119.91-19.95-186.85-30.41l-0.23-0.04l-0.18,0.16c-2.44,2.19-1.31,4.53-0.22,6.79
		c0.92,1.92,1.88,3.9,1.03,6.09l-0.23,0.58l174.64,27.57c1.1,0.17,2.09,0.34,2.99,0.5c2.16,0.37,3.77,0.65,4.97,0.65
		c0.91,0,1.59-0.16,2.11-0.54c0.55-0.41,0.87-1.05,0.98-1.95l1.47-9.31L360.78,404.11z"/>
</g>
<g>
	<path d="M326.01,626.2c-80.58,0-156.35-31.25-213.33-88c-56.99-56.75-88.37-132.21-88.37-212.48c0-80.26,31.39-155.72,88.37-212.47
		c56.98-56.75,132.74-88,213.33-88c80.58,0,156.34,31.25,213.33,88c56.99,56.75,88.37,132.21,88.37,212.47
		c0,80.27-31.38,155.73-88.37,212.48C482.35,594.95,406.59,626.2,326.01,626.2z M326.01,35.25c-160.84,0-291.7,130.31-291.7,290.47
		c0,160.17,130.86,290.48,291.7,290.48s291.7-130.31,291.7-290.48C617.71,165.56,486.85,35.25,326.01,35.25z"/>
</g>
<g>
	<path d="M325.51,502.73c-98.27,0-178.22-79.63-178.22-177.51c0-97.88,79.95-177.51,178.22-177.51
		c98.27,0,178.22,79.63,178.22,177.51C503.73,423.1,423.78,502.73,325.51,502.73z M325.51,157.72
		c-92.76,0-168.22,75.14-168.22,167.51c0,92.36,75.46,167.51,168.22,167.51s168.22-75.14,168.22-167.51
		C493.73,232.86,418.27,157.72,325.51,157.72z"/>
</g>
</svg>
